<?xml version="1.0" encoding="utf-8"?>
<!-- Generator: Adobe Illustrator 19.1.0, SVG Export Plug-In . SVG Version: 6.00 Build 0)  -->
<svg version="1.1" id="Layer_1" xmlns="http://www.w3.org/2000/svg" xmlns:xlink="http://www.w3.org/1999/xlink" x="0px" y="0px"
	 viewBox="0 0 100 100" style="enable-background:new 0 0 100 100;" xml:space="preserve">
<style type="text/css">
	.st0{fill:#399099;stroke:#000000;stroke-width:2.099;stroke-miterlimit:10;}
	.st1{fill:#6CCBDA;stroke:#000000;stroke-width:2.099;stroke-miterlimit:10;}
	.st2{fill:#399099;stroke:#000000;stroke-width:1.5742;stroke-miterlimit:10;}
	.st3{fill:#6CCBDA;stroke:#000000;stroke-width:1.9226;stroke-miterlimit:10;}
</style>
<g>
	<circle class="st0" cx="50.5" cy="50" r="47.5"/>
	<ellipse transform="matrix(0.9888 -0.1494 0.1494 0.9888 -5.8405 6.4175)" class="st1" cx="39.8" cy="42.1" rx="8.3" ry="8.4"/>
	<ellipse transform="matrix(0.9888 -0.1494 0.1494 0.9888 -5.8405 6.4175)" class="st2" cx="39.8" cy="42.1" rx="8.3" ry="8.4"/>
	<path class="st1" d="M56.4,41.8c0-0.7-0.1-1.4-0.2-2.2c-0.2-1.1-0.5-2.2-0.8-3.3c3.1-0.8,5.1-3.9,4.6-7.1c-0.5-3.5-3.8-5.9-7.2-5.3
		c-2.2,0.3-3.9,1.7-4.8,3.6c-1.5-0.9-3.1-1.5-4.8-1.8c0.3-0.9,0.4-1.9,0.2-2.8c-0.5-3.5-3.8-5.9-7.2-5.3s-5.9,3.8-5.3,7.2
		c0.1,1,0.5,1.9,1,2.7c-1.4,0.8-2.7,1.7-3.8,2.9c-1.4-1.1-3.2-1.7-5.1-1.4c-3.5,0.5-5.9,3.8-5.3,7.2c0.4,2.9,2.8,5.1,5.6,5.4
		c0,1,0,2.1,0.2,3.2c0.2,1,0.4,2.1,0.7,3c-2.4,1.2-3.8,3.8-3.4,6.6c0.5,3.5,3.8,5.9,7.2,5.3c1.8-0.3,3.2-1.2,4.2-2.6
		c1.4,0.7,2.9,1.3,4.4,1.6c-0.1,0.7-0.1,1.4,0,2.1c0.5,3.5,3.8,5.9,7.2,5.3s5.9-3.8,5.3-7.2c-0.1-0.8-0.4-1.6-0.8-2.3
		c1.5-0.9,2.8-2,3.9-3.3c1.3,1,3,1.4,4.7,1.2c3.5-0.5,5.9-3.8,5.3-7.2C61.8,44.1,59.3,41.9,56.4,41.8z M41,50.4
		c-4.5,0.7-8.8-2.5-9.5-7.1s2.4-8.9,7-9.5c4.5-0.7,8.8,2.5,9.5,7.1C48.7,45.4,45.6,49.7,41,50.4z"/>
	<ellipse transform="matrix(0.9818 -0.1897 0.1897 0.9818 -11.3506 13.9713)" class="st3" cx="67.3" cy="66.3" rx="4.2" ry="4.3"/>
	<ellipse transform="matrix(0.9818 -0.1897 0.1897 0.9818 -11.3506 13.9713)" class="st2" cx="67.3" cy="66.3" rx="4.2" ry="4.3"/>
	<path class="st3" d="M75.7,65.8c0-0.4-0.1-0.7-0.1-1.1c-0.1-0.6-0.3-1.1-0.5-1.6c1.5-0.5,2.5-2.1,2.2-3.7c-0.3-1.7-2-2.9-3.8-2.6
		c-1.1,0.2-2,1-2.4,1.9c-0.8-0.4-1.6-0.7-2.5-0.8c0.1-0.5,0.1-0.9,0.1-1.4c-0.3-1.7-2-2.9-3.8-2.6c-1.7,0.3-2.9,2-2.6,3.8
		c0.1,0.5,0.3,0.9,0.6,1.3c-0.7,0.4-1.3,0.9-1.8,1.5c-0.7-0.6-1.6-0.8-2.6-0.6c-1.7,0.3-2.9,2-2.6,3.8c0.3,1.5,1.5,2.5,2.9,2.6
		c0,0.5,0.1,1.1,0.2,1.6c0.1,0.5,0.2,1,0.4,1.5c-1.2,0.7-1.9,2-1.6,3.4c0.3,1.7,2,2.9,3.8,2.6c0.9-0.2,1.6-0.7,2.1-1.4
		c0.7,0.3,1.5,0.6,2.3,0.7c-0.1,0.3,0,0.7,0,1.1c0.3,1.7,2,2.9,3.8,2.6s2.9-2,2.6-3.8c-0.1-0.4-0.2-0.8-0.5-1.1
		c0.7-0.5,1.4-1.1,1.9-1.7c0.7,0.5,1.5,0.7,2.4,0.5c1.7-0.3,2.9-2,2.6-3.8C78.5,66.9,77.2,65.8,75.7,65.8z M68.1,70.4
		c-2.3,0.4-4.5-1.1-4.9-3.4c-0.4-2.3,1-4.5,3.3-5c2.3-0.4,4.5,1.1,4.9,3.4C71.9,67.8,70.4,70,68.1,70.4z"/>
</g>
</svg>
