<?xml version="1.0" encoding="utf-8"?>
<!-- Generator: Adobe Illustrator 19.1.0, SVG Export Plug-In . SVG Version: 6.00 Build 0)  -->
<svg version="1.1" id="Layer_1" xmlns="http://www.w3.org/2000/svg" xmlns:xlink="http://www.w3.org/1999/xlink" x="0px" y="0px"
	 viewBox="0 0 100 100" style="enable-background:new 0 0 100 100;" xml:space="preserve">
<style type="text/css">
	.st0{fill:#D77838;stroke:#000000;stroke-width:2.1303;stroke-miterlimit:10;}
	.st1{fill:#FFFFFF;stroke:#000000;stroke-width:1.7817;stroke-miterlimit:10;}
	.st2{fill:#399099;stroke:#000000;stroke-width:1.5977;stroke-linejoin:round;stroke-miterlimit:10;}
	.st3{fill:none;stroke:#000000;stroke-width:1.0652;stroke-linecap:round;stroke-linejoin:round;stroke-miterlimit:10;}
	.st4{stroke:#000000;stroke-width:1.2813;stroke-miterlimit:10;}
	.st5{fill:none;stroke:#000000;stroke-width:1.86;stroke-miterlimit:10;}
</style>
<circle class="st0" cx="50" cy="50" r="48.2"/>
<rect x="27.2" y="25" class="st1" width="44.5" height="54.8"/>
<path class="st2" d="M57.6,49.4"/>
<path class="st2" d="M47.6,42.1"/>
<path class="st3" d="M52.6,41.4"/>
<path class="st3" d="M54.6,42.9"/>
<path class="st3" d="M67.8,25"/>
<path class="st3" d="M56.8,44.5"/>
<path class="st4" d="M64.8,77.1v-4.2H51c-1.6,0-2.9-1.3-2.9-2.9v-6.9c0-1.6,1.3-2.9,2.9-2.9h13.8v-4l17.3,10.6L64.8,77.1z"/>
<line class="st5" x1="33.9" y1="34" x2="65" y2="34"/>
<line class="st5" x1="33.9" y1="41.3" x2="65" y2="41.3"/>
<line class="st5" x1="33.9" y1="48.7" x2="65" y2="48.7"/>
<line class="st5" x1="33.9" y1="56.1" x2="65" y2="56.1"/>
<line class="st5" x1="33.9" y1="63.5" x2="65" y2="63.5"/>
<line class="st5" x1="33.9" y1="70.9" x2="65" y2="70.9"/>
</svg>
