<?xml version="1.0" encoding="utf-8"?>
<!-- Generator: Adobe Illustrator 19.1.0, SVG Export Plug-In . SVG Version: 6.00 Build 0)  -->
<svg version="1.1" id="Layer_1" xmlns="http://www.w3.org/2000/svg" xmlns:xlink="http://www.w3.org/1999/xlink" x="0px" y="0px"
	 viewBox="0 0 100 100" style="enable-background:new 0 0 100 100;" xml:space="preserve">
<style type="text/css">
	.st0{fill:#D77838;}
	.st1{fill:#6CCBDA;}
	.st2{fill:#FFFFFF;}
</style>
<g>
	<circle class="st0" cx="49.6" cy="50.2" r="48.2"/>
	<ellipse transform="matrix(0.9888 -0.1494 0.1494 0.9888 -5.8752 6.2573)" class="st1" cx="38.7" cy="42.2" rx="8.4" ry="8.5"/>
	<ellipse transform="matrix(0.9888 -0.1494 0.1494 0.9888 -5.8752 6.2573)" class="st0" cx="38.7" cy="42.2" rx="8.4" ry="8.5"/>
	<path class="st2" d="M55.6,41.9c0-0.7-0.1-1.5-0.2-2.2c-0.2-1.2-0.5-2.3-0.8-3.3c3.1-0.9,5.2-3.9,4.7-7.2c-0.5-3.5-3.8-6-7.4-5.4
		c-2.2,0.3-4,1.8-4.9,3.6c-1.5-0.9-3.2-1.5-4.9-1.9c0.3-0.9,0.4-1.9,0.2-2.9c-0.5-3.5-3.8-6-7.4-5.4c-3.5,0.5-6,3.8-5.4,7.4
		c0.2,1,0.5,1.9,1.1,2.7c-1.4,0.8-2.7,1.8-3.8,2.9c-1.4-1.2-3.2-1.8-5.1-1.5c-3.5,0.5-6,3.8-5.4,7.4c0.4,3,2.8,5.1,5.7,5.5
		c0,1.1,0,2.1,0.2,3.2c0.2,1.1,0.4,2.1,0.8,3.1c-2.4,1.2-3.9,3.9-3.5,6.7c0.5,3.5,3.8,6,7.4,5.4c1.8-0.3,3.3-1.3,4.3-2.6
		c1.4,0.7,2.9,1.3,4.5,1.6c-0.1,0.7-0.2,1.4,0,2.2c0.5,3.5,3.8,6,7.4,5.4s6-3.8,5.4-7.4c-0.1-0.8-0.4-1.6-0.8-2.3
		c1.5-0.9,2.8-2,4-3.3c1.3,1,3,1.5,4.8,1.2c3.5-0.5,6-3.8,5.4-7.4C61.1,44.3,58.6,42.1,55.6,41.9z"/>
	<ellipse transform="matrix(0.1494 0.9888 -0.9888 0.1494 74.6784 -2.3519)" class="st0" cx="38.7" cy="42.2" rx="8.5" ry="8.4"/>
	<ellipse transform="matrix(0.9818 -0.1897 0.1897 0.9818 -11.4639 13.8584)" class="st1" cx="66.6" cy="66.8" rx="4.3" ry="4.3"/>
	<ellipse transform="matrix(0.9818 -0.1897 0.1897 0.9818 -11.4639 13.8584)" class="st0" cx="66.6" cy="66.8" rx="4.3" ry="4.3"/>
	<path class="st2" d="M75.2,66.3c0-0.4-0.1-0.7-0.1-1.1c-0.1-0.6-0.3-1.1-0.5-1.7c1.6-0.5,2.5-2.1,2.2-3.7c-0.3-1.8-2.1-2.9-3.8-2.6
		c-1.1,0.2-2,1-2.4,1.9c-0.8-0.4-1.6-0.7-2.5-0.8c0.1-0.5,0.1-1,0.1-1.5c-0.3-1.8-2.1-2.9-3.8-2.6c-1.8,0.3-2.9,2.1-2.6,3.8
		c0.1,0.5,0.3,1,0.6,1.3c-0.7,0.4-1.3,1-1.9,1.5c-0.7-0.6-1.7-0.8-2.6-0.6c-1.8,0.3-2.9,2.1-2.6,3.8c0.3,1.5,1.5,2.5,3,2.6
		c0,0.5,0.1,1.1,0.2,1.6c0.1,0.5,0.3,1,0.4,1.5c-1.2,0.7-1.9,2.1-1.6,3.5c0.3,1.8,2.1,2.9,3.8,2.6c0.9-0.2,1.6-0.7,2.1-1.4
		c0.7,0.3,1.5,0.6,2.3,0.7c-0.1,0.4,0,0.7,0,1.1c0.3,1.8,2.1,2.9,3.8,2.6c1.8-0.3,2.9-2.1,2.6-3.8c-0.1-0.4-0.2-0.8-0.5-1.1
		c0.7-0.5,1.4-1.1,1.9-1.8c0.7,0.5,1.6,0.7,2.5,0.5c1.8-0.3,2.9-2.1,2.6-3.8C78,67.4,76.7,66.3,75.2,66.3z"/>
	<ellipse transform="matrix(0.1897 0.9818 -0.9818 0.1897 119.5849 -11.3079)" class="st0" cx="66.6" cy="66.8" rx="4.3" ry="4.3"/>
</g>
</svg>
