<?xml version="1.0" encoding="utf-8"?>
<!-- Generator: Adobe Illustrator 19.1.0, SVG Export Plug-In . SVG Version: 6.00 Build 0)  -->
<svg version="1.1" id="Layer_1" xmlns="http://www.w3.org/2000/svg" xmlns:xlink="http://www.w3.org/1999/xlink" x="0px" y="0px"
	 viewBox="0 0 100 100" style="enable-background:new 0 0 100 100;" xml:space="preserve">
<style type="text/css">
	.st0{fill:#D77838;}
	.st1{fill:#FFFFFF;}
</style>
<circle class="st0" cx="49.5" cy="50.5" r="47.5"/>
<g>
	<g>
		<path class="st1" d="M53,81.3c0,0.3-0.3,0.7-0.7,0.7h-5.9c-0.7,0-0.7-0.6-0.7-5.5c-8.5-1.5-13-7.2-13-16.8c0-0.4,0.2-0.7,0.7-0.7
			l10.3-0.6c0.5,0,0.7,0.2,0.9,0.9c0.6,2.8,1.9,4.6,3.7,4.6c1.1,0,1.8-0.7,1.8-1.8c0-2.1-2-3.9-8.4-8.5c-4.6-3.3-7.7-8.1-7.7-14
			c0-6.2,4.1-12.7,11.6-14.2v-4.5c0-0.4,0.2-0.7,0.6-0.7h5.9c0.7,0,0.7,0.5,0.7,5.3c7.5,1.5,12,7.7,12,14.9c0,0.5-0.3,0.8-0.9,0.9
			L53,41.8c-0.6,0-2-3.1-2.7-3.1c-0.7,0-1.1,0.7-1.1,1.2c0,2,2.7,4,8.1,8.1c5,3.8,7.7,8.4,7.7,13.4c0,8.1-4.6,13.7-12.1,15.1V81.3z"
			/>
	</g>
</g>
</svg>
