<?xml version="1.0" encoding="utf-8"?>
<!-- Generator: Adobe Illustrator 19.1.0, SVG Export Plug-In . SVG Version: 6.00 Build 0)  -->
<svg version="1.1" id="Layer_1" xmlns="http://www.w3.org/2000/svg" xmlns:xlink="http://www.w3.org/1999/xlink" x="0px" y="0px"
	 viewBox="0 0 200 100" style="enable-background:new 0 0 200 100;" xml:space="preserve">
<style type="text/css">
	.st0{fill:#6FCBD8;stroke:#000000;stroke-width:1.6423;stroke-miterlimit:10;}
	.st1{fill:#3C919A;stroke:#000000;stroke-width:1.6423;stroke-miterlimit:10;}
	.st2{fill:none;}
	.st3{font-family:'AmericanTypewriter-CondensedLight';}
	.st4{font-size:41.0569px;}
</style>
<path class="st0" d="M165.6,46.4h-132c-6.6,0-12-5.4-12-12v-16c0-6.6,5.4-12,12-12h132c6.6,0,12,5.4,12,12v16
	C177.6,41,172.2,46.4,165.6,46.4z"/>
<path class="st1" d="M182.8,92.4H14.7c-6.6,0-12-5.4-12-12v-22c0-6.6,5.4-12,12-12h168.1c6.6,0,12,5.4,12,12v22
	C194.8,87,189.4,92.4,182.8,92.4z"/>
<rect x="24.2" y="56.2" class="st2" width="438.6" height="57.1"/>
<text transform="matrix(1 0 0 1 24.2168 83.7767)" class="st3 st4">Cookbook</text>
<rect x="45.7" y="12.3" class="st2" width="438.6" height="57.1"/>
<text transform="matrix(1 0 0 1 45.667 39.8285)" class="st3 st4">Virtual</text>
</svg>
