<?xml version="1.0" encoding="utf-8"?>
<!-- Generator: Adobe Illustrator 19.1.0, SVG Export Plug-In . SVG Version: 6.00 Build 0)  -->
<svg version="1.1" id="Layer_1" xmlns="http://www.w3.org/2000/svg" xmlns:xlink="http://www.w3.org/1999/xlink" x="0px" y="0px"
	 viewBox="0 0 100 100" style="enable-background:new 0 0 100 100;" xml:space="preserve">
<style type="text/css">
	.st0{fill:#D77838;}
	.st1{fill:#FFFFFF;}
</style>
<circle class="st0" cx="50" cy="50" r="47.5"/>
<g>
	<g>
		<path class="st1" d="M40.8,73c0,0.3-0.3,0.6-0.6,0.6h-5.1c-0.6,0-0.6-0.5-0.6-4.7c-7.4-1.3-11.3-6.2-11.3-14.5
			c0-0.4,0.2-0.6,0.6-0.6l9-0.5c0.4,0,0.6,0.1,0.8,0.8c0.5,2.5,1.6,4,3.2,4c0.9,0,1.6-0.6,1.6-1.6c0-1.8-1.7-3.4-7.3-7.4
			c-4-2.9-6.6-7.1-6.6-12.1c0-5.4,3.5-11,10.1-12.3v-3.9c0-0.4,0.2-0.6,0.5-0.6h5.2c0.6,0,0.6,0.4,0.6,4.6
			c6.5,1.3,10.4,6.7,10.4,12.9c0,0.4-0.3,0.7-0.8,0.8l-9.7,0.5c-0.5,0-1.8-2.7-2.3-2.7c-0.6,0-0.9,0.6-0.9,1.1
			c0,1.7,2.3,3.5,7.1,7.1c4.4,3.3,6.7,7.3,6.7,11.6c0,7.1-4,11.9-10.5,13.1V73z"/>
	</g>
</g>
<g>
	<g>
		<path class="st1" d="M66.1,72.5c0,0.3-0.3,0.6-0.6,0.6h-5.1c-0.6,0-0.6-0.5-0.6-4.7c-7.4-1.3-11.3-6.2-11.3-14.5
			c0-0.4,0.2-0.6,0.6-0.6l9-0.5c0.4,0,0.6,0.1,0.8,0.8c0.5,2.5,1.6,4,3.2,4c0.9,0,1.6-0.6,1.6-1.6c0-1.8-1.7-3.4-7.3-7.4
			c-4-2.9-6.6-7.1-6.6-12.1c0-5.4,3.5-11,10.1-12.3V20c0-0.4,0.2-0.6,0.5-0.6h5.2c0.6,0,0.6,0.4,0.6,4.6c6.5,1.3,10.4,6.7,10.4,12.9
			c0,0.4-0.3,0.7-0.8,0.8l-9.7,0.5c-0.5,0-1.8-2.7-2.3-2.7c-0.6,0-0.9,0.6-0.9,1.1c0,1.7,2.3,3.5,7.1,7.1c4.4,3.3,6.7,7.3,6.7,11.6
			c0,7.1-4,11.9-10.5,13.1V72.5z"/>
	</g>
</g>
</svg>
