<?xml version="1.0" encoding="utf-8"?>
<!-- Generator: Adobe Illustrator 19.1.0, SVG Export Plug-In . SVG Version: 6.00 Build 0)  -->
<svg version="1.1" id="Layer_1" xmlns="http://www.w3.org/2000/svg" xmlns:xlink="http://www.w3.org/1999/xlink" x="0px" y="0px"
	 viewBox="0 0 100 100" style="enable-background:new 0 0 100 100;" xml:space="preserve">
<style type="text/css">
	.st0{fill:#D77838;}
	.st1{fill:#FFFFFF;}
	.st2{fill:none;stroke:#D77838;stroke-width:1.874;stroke-linecap:round;stroke-miterlimit:10;}
</style>
<circle class="st0" cx="49.9" cy="49.7" r="48.6"/>
<rect x="26.5" y="22.9" class="st1" width="46.9" height="57.6"/>
<line class="st2" x1="34" y1="33" x2="65.4" y2="33"/>
<line class="st2" x1="34" y1="40.4" x2="65.4" y2="40.4"/>
<line class="st2" x1="34" y1="47.9" x2="65.4" y2="47.9"/>
<line class="st2" x1="34" y1="55.3" x2="65.4" y2="55.3"/>
<line class="st2" x1="34" y1="62.8" x2="65.4" y2="62.8"/>
<line class="st2" x1="34" y1="70.2" x2="65.4" y2="70.2"/>
<path class="st0" d="M56.6,51.4l-7.7-5.7c-0.4-0.3-0.4-0.8-0.2-1.1l13-17.6c1.6-2.2,4.7-2.7,6.9-1l1.1,0.8c2.2,1.6,2.7,4.7,1,6.9
	l-13,17.6C57.4,51.6,56.9,51.7,56.6,51.4z"/>
<polygon class="st1" points="48.4,54.7 57.2,51.7 48.4,45.2 "/>
<polygon class="st0" points="48.4,50.9 51.9,53.5 48.4,54.7 "/>
<rect x="139.8" y="43" class="st0" width="11.2" height="19.8"/>
</svg>
