<?xml version="1.0" encoding="utf-8"?>
<!-- Generator: Adobe Illustrator 19.1.0, SVG Export Plug-In . SVG Version: 6.00 Build 0)  -->
<svg version="1.1" id="Layer_1" xmlns="http://www.w3.org/2000/svg" xmlns:xlink="http://www.w3.org/1999/xlink" x="0px" y="0px"
	 viewBox="0 0 100 100" style="enable-background:new 0 0 100 100;" xml:space="preserve">
<style type="text/css">
	.st0{fill:#399099;stroke:#000000;stroke-width:2.1464;stroke-miterlimit:10;}
	.st1{fill:#6CCBDA;stroke:#000000;stroke-width:1.874;stroke-miterlimit:10;}
	.st2{fill:none;stroke:#000000;stroke-width:1.874;stroke-miterlimit:10;}
	.st3{fill:#399099;stroke:#000000;stroke-width:1.4055;stroke-miterlimit:10;}
	.st4{fill:#399099;stroke:#000000;stroke-width:1.4055;stroke-linejoin:round;stroke-miterlimit:10;}
	.st5{fill:none;stroke:#000000;stroke-width:0.937;stroke-linecap:round;stroke-linejoin:round;stroke-miterlimit:10;}
	.st6{fill:#020202;stroke:#000000;stroke-width:0.937;stroke-linecap:round;stroke-linejoin:round;stroke-miterlimit:10;}
</style>
<g>
	<circle class="st0" cx="49.9" cy="49.7" r="48.6"/>
	<rect x="26.5" y="22.9" class="st1" width="46.9" height="57.6"/>
	<line class="st2" x1="34" y1="33" x2="65.4" y2="33"/>
	<line class="st2" x1="34" y1="40.4" x2="65.4" y2="40.4"/>
	<line class="st2" x1="34" y1="47.9" x2="65.4" y2="47.9"/>
	<line class="st2" x1="34" y1="55.3" x2="65.4" y2="55.3"/>
	<line class="st2" x1="34" y1="62.8" x2="65.4" y2="62.8"/>
	<line class="st2" x1="34" y1="70.2" x2="65.4" y2="70.2"/>
	<path class="st3" d="M56.6,51.4l-7.7-5.7c-0.4-0.3-0.4-0.8-0.2-1.1l13-17.6c1.6-2.2,4.7-2.7,6.9-1l1.1,0.8c2.2,1.6,2.7,4.7,1,6.9
		l-13,17.6C57.4,51.6,56.9,51.7,56.6,51.4z"/>
	<polygon class="st4" points="48.4,54.7 57.2,51.7 48.4,45.2 	"/>
	<line class="st5" x1="64.5" y1="28.9" x2="52.9" y2="44.7"/>
	<line class="st5" x1="66.2" y1="30.2" x2="54.6" y2="45.9"/>
	<line class="st5" x1="68.1" y1="31.6" x2="56.5" y2="47.3"/>
	<polygon class="st6" points="48.4,50.9 51.9,53.5 48.4,54.7 	"/>
</g>
</svg>
